<svg xmlns="http://www.w3.org/2000/svg" width="119.959" height="64.034" viewBox="0 0 119.959 64.034">
  <g id="Group_898" data-name="Group 898" transform="translate(-142.479 -376.166)">
    <g id="Group_896" data-name="Group 896" transform="translate(142.479 376.166)">
      <g id="Group_887" data-name="Group 887" transform="translate(9.013 14.789)">
        <g id="Group_886" data-name="Group 886">
          <path id="Path_1579" data-name="Path 1579" d="M188.434,415.616v24h.749a3.352,3.352,0,0,1,2.249.61,2.187,2.187,0,0,1,.01,3.17,3.343,3.343,0,0,1-2.26.611h-3.922l-.609-1.68a20.049,20.049,0,0,1-3.747,1.937,12.768,12.768,0,0,1-3.395.45,11.112,11.112,0,0,1-7.968-2.86,9.4,9.4,0,0,1-3.02-7.121,10.326,10.326,0,0,1,3.17-7.6,10.556,10.556,0,0,1,7.732-3.149,11.018,11.018,0,0,1,3.363.525,13.4,13.4,0,0,1,3.256,1.574v-6.071h-.75a3.343,3.343,0,0,1-2.26-.61,2.026,2.026,0,0,1-.674-1.574,2.05,2.05,0,0,1,.674-1.6,3.343,3.343,0,0,1,2.26-.61Zm-4.391,19.243a6.229,6.229,0,0,0-1.906-4.6,6.7,6.7,0,0,0-9.317,0,6.153,6.153,0,0,0-1.906,4.54,5.121,5.121,0,0,0,1.714,3.973,8.321,8.321,0,0,0,9.681,0A5.023,5.023,0,0,0,184.043,434.859Z" transform="translate(-166.523 -415.616)" fill="#fff"/>
        </g>
      </g>
      <g id="Group_889" data-name="Group 889" transform="translate(60.889 14.789)">
        <g id="Group_888" data-name="Group 888">
          <path id="Path_1580" data-name="Path 1580" d="M312.98,415.616v9.969a11.636,11.636,0,0,1,2.774-1.21,10.386,10.386,0,0,1,2.838-.4,10.082,10.082,0,0,1,4.048.771,6.927,6.927,0,0,1,2.945,2.431,7.106,7.106,0,0,1,1.167,4.187v8.246a4.771,4.771,0,0,1,2.185.321,2.118,2.118,0,0,1,1.028,1.885,2.04,2.04,0,0,1-.664,1.574,3.3,3.3,0,0,1-2.249.611H322.04a3.3,3.3,0,0,1-2.238-.611,2.05,2.05,0,0,1-.675-1.6,2.1,2.1,0,0,1,1.028-1.863,4.488,4.488,0,0,1,2.185-.321v-7.947a3.068,3.068,0,0,0-.771-2.377,4.277,4.277,0,0,0-2.977-.921,5.658,5.658,0,0,0-2.581.568,13.871,13.871,0,0,0-3.03,2.452v8.225a4.69,4.69,0,0,1,2.184.321,2.108,2.108,0,0,1,1.05,1.885,2.025,2.025,0,0,1-.675,1.574,3.343,3.343,0,0,1-2.26.611h-4.99a3.342,3.342,0,0,1-2.26-.611,2.05,2.05,0,0,1-.675-1.6,2.09,2.09,0,0,1,1.05-1.863,4.418,4.418,0,0,1,2.185-.321V420.007h-.75a3.342,3.342,0,0,1-2.26-.61,2.051,2.051,0,0,1-.675-1.6,2.025,2.025,0,0,1,.675-1.574,3.342,3.342,0,0,1,2.26-.61Z" transform="translate(-304.905 -415.616)" fill="#fff"/>
        </g>
      </g>
      <g id="Group_891" data-name="Group 891" transform="translate(88.561 23.151)">
        <g id="Group_890" data-name="Group 890">
          <path id="Path_1581" data-name="Path 1581" d="M395.149,457.95l-.609-1.637a20.122,20.122,0,0,1-4.25,1.927,16.947,16.947,0,0,1-3.62.439,8.559,8.559,0,0,1-5.74-1.874,5.407,5.407,0,0,1-2.206-4.145q0-2.763,2.816-5.13t7.786-2.367a28.915,28.915,0,0,1,4.6.428v-1.049a1.91,1.91,0,0,0-.846-1.606,5.843,5.843,0,0,0-3.223-.621,21.976,21.976,0,0,0-5.055.771,8.246,8.246,0,0,1-1.8.279,1.992,1.992,0,0,1-1.489-.632,2.23,2.23,0,0,1-.61-1.617,2.043,2.043,0,0,1,.214-.964,1.708,1.708,0,0,1,.6-.653,7.058,7.058,0,0,1,1.606-.589,30.3,30.3,0,0,1,3.32-.717,19.775,19.775,0,0,1,3.063-.268,10.091,10.091,0,0,1,6.351,1.767,5.8,5.8,0,0,1,2.26,4.83v9.039h.75a3.343,3.343,0,0,1,2.259.61,2.051,2.051,0,0,1,.675,1.6,2.025,2.025,0,0,1-.675,1.574,3.342,3.342,0,0,1-2.259.611Zm-1.218-7.861a25.519,25.519,0,0,0-4.862-.514,8.015,8.015,0,0,0-4.6,1.306q-1.2.835-1.2,1.692a1.165,1.165,0,0,0,.578,1.007,5.279,5.279,0,0,0,2.935.707,12.234,12.234,0,0,0,3.587-.621,13.147,13.147,0,0,0,3.566-1.692Z" transform="translate(-378.724 -437.924)" fill="#fff"/>
        </g>
      </g>
      <g id="Group_893" data-name="Group 893" transform="translate(36.197 22.585)">
        <g id="Group_892" data-name="Group 892">
          <path id="Path_1582" data-name="Path 1582" d="M250.566,457.729a13.693,13.693,0,0,1-6.816-1.69,9.323,9.323,0,0,1-4.693-7.845,6.036,6.036,0,0,1,.522-3.135,2.132,2.132,0,0,1,3.171-.977,14.105,14.105,0,0,0,7.932,1.616,12.981,12.981,0,0,0,5.815-1.6c0-1.568-2.746-3.624-6.3-3.4a9.569,9.569,0,0,0-3.038.72,2.132,2.132,0,0,1-1.805-3.863,13.558,13.558,0,0,1,4.581-1.113c6.844-.422,11.246,4.934,11.246,7.695a2.856,2.856,0,0,1-.481,2.1c-.319.339-3.3,3.327-9.751,3.724a19.9,19.9,0,0,1-7.48-.923,4.906,4.906,0,0,0,2.435,3.324,9.8,9.8,0,0,0,5.384,1.088c4.8-.3,6.792-2.433,6.875-2.524a2.118,2.118,0,0,1,2.994-.23,2.147,2.147,0,0,1,.232,3.019c-.311.365-3.23,3.585-9.839,3.992C251.26,457.717,250.931,457.729,250.566,457.729Z" transform="translate(-239.039 -436.412)" fill="#fff"/>
        </g>
      </g>
      <g id="Group_894" data-name="Group 894" transform="translate(35.619)">
        <path id="Path_1583" data-name="Path 1583" d="M248.095,395.59h-.05a2.084,2.084,0,0,1-1.532-.889l-8.468-7.83a2.188,2.188,0,0,1,.153-3.058,2.13,2.13,0,0,1,3.012.13L248.168,390l13.084-13.2a2.131,2.131,0,1,1,3.028,3l-14.67,14.977A2.347,2.347,0,0,1,248.095,395.59Z" transform="translate(-237.495 -376.166)" fill="#fff"/>
      </g>
      <g id="Group_895" data-name="Group 895" transform="translate(0 14.551)">
        <path id="Path_1584" data-name="Path 1584" d="M368.133,522.718h3.017l-1.509-3.421Z" transform="translate(-283.542 -480.192)" fill="#fff"/>
        <path id="Path_1585" data-name="Path 1585" d="M222.563,414.981a2.063,2.063,0,1,0,0,4.124h35.376v29.615H146.977V419.1h9.179a2.063,2.063,0,1,0,0-4.124H142.479v49.483H262.438V414.981Zm-65.985,45.71H155.01l-3.338-8.3h1.568l2.554,6.2,2.554-6.2h1.568Zm13.056,0h-1.4v-8.3h1.4Zm15.407,0h-5.975v-8.3H184.9v1.318h-4.431v2.2h3.979v1.247h-3.979v2.221h4.573Zm14.576-7.021H197.1v7.021h-1.4V453.67h-2.518v-1.283h6.438Zm16.275,7.021h-1.52l-4.7-6.058v6.058h-1.4v-8.3h1.4l4.823,6.2v-6.2h1.4Zm15.6,0-.832-1.889H226.5l-.831,1.889h-1.5l3.659-8.3h1.5l3.659,8.3Zm19.149,0h-1.4V454.2l-2.9,5.761h-.783l-2.887-5.761v6.486h-1.4v-8.3h2.186l2.506,5.215,2.507-5.215h2.174Z" transform="translate(-142.479 -414.981)" fill="#fff"/>
      </g>
    </g>
  </g>
</svg>
