<svg xmlns="http://www.w3.org/2000/svg" width="403.141" height="71.59" viewBox="0 0 403.141 71.59"><g transform="translate(-68.508 -96)"><path d="M11.269-6.913a13.878,13.878,0,0,1-5.175-.822A9.1,9.1,0,0,1,2.918-9.755,8.368,8.368,0,0,1,1.23-12.176a8.925,8.925,0,0,1-.666-2.043l-.133-.822H7.715l.133.4a3.185,3.185,0,0,0,.533.911,3.205,3.205,0,0,0,1.244.888,5.366,5.366,0,0,0,2.176.378,3.84,3.84,0,0,0,2.443-.622A1.78,1.78,0,0,0,15-14.464a1.252,1.252,0,0,0-.533-1.088,4.233,4.233,0,0,0-1.421-.6L9.8-16.862a9.4,9.4,0,0,1-4.642-2.354,5.74,5.74,0,0,1-1.71-4.264,6.839,6.839,0,0,1,1.2-3.909,8.464,8.464,0,0,1,3.487-2.865,12.789,12.789,0,0,1,5.53-1.088,12.5,12.5,0,0,1,4.664.755A8.4,8.4,0,0,1,21.285-28.7a8.621,8.621,0,0,1,1.621,2.265,8.858,8.858,0,0,1,.688,1.888l.155.755H16.776l-.244-.511a2.659,2.659,0,0,0-1-1,4.324,4.324,0,0,0-2.31-.489,3.617,3.617,0,0,0-2.2.555,1.652,1.652,0,0,0-.733,1.355,1.333,1.333,0,0,0,.577,1.133,4.233,4.233,0,0,0,1.6.644l2.709.577a9.424,9.424,0,0,1,5.108,2.465,5.966,5.966,0,0,1,1.732,4.286,6.769,6.769,0,0,1-1.244,3.931,8.465,8.465,0,0,1-3.642,2.865A14.407,14.407,0,0,1,11.269-6.913Zm13.681-.444,7.2-33.757h7.64L36.9-27.567h.222l.355-.555a7.173,7.173,0,0,1,1.177-1.31,7.82,7.82,0,0,1,2.11-1.333,7.693,7.693,0,0,1,3.154-.577A6.608,6.608,0,0,1,48.091-30.1a6.172,6.172,0,0,1,2.176,3.309,9.247,9.247,0,0,1,.044,4.508l-3.2,14.924h-7.6L42.405-20.9a4.6,4.6,0,0,0-.178-3,2.281,2.281,0,0,0-2.31-1.266,3.74,3.74,0,0,0-3,1.333,6.805,6.805,0,0,0-1.488,3.2L32.589-7.357Zm40.287.444a12.058,12.058,0,0,1-6.374-1.532,9.552,9.552,0,0,1-3.709-3.975,11.735,11.735,0,0,1-1.2-5.241,14.03,14.03,0,0,1,.888-4.864,13.729,13.729,0,0,1,2.665-4.42,13.188,13.188,0,0,1,4.353-3.2,13.961,13.961,0,0,1,5.952-1.2,11.965,11.965,0,0,1,6.33,1.532,9.7,9.7,0,0,1,3.731,3.975,11.559,11.559,0,0,1,1.221,5.241,13.905,13.905,0,0,1-.911,4.886,13.739,13.739,0,0,1-2.687,4.42,13.341,13.341,0,0,1-4.353,3.176A13.849,13.849,0,0,1,65.236-6.913Zm.267-6.13a4.744,4.744,0,0,0,3.131-1.088,7.11,7.11,0,0,0,2.021-2.8,9.227,9.227,0,0,0,.711-3.576,5.754,5.754,0,0,0-.955-3.287,3.355,3.355,0,0,0-3-1.421,4.744,4.744,0,0,0-3.131,1.088,7.11,7.11,0,0,0-2.021,2.8,9.227,9.227,0,0,0-.711,3.576,5.754,5.754,0,0,0,.955,3.287A3.355,3.355,0,0,0,65.5-13.042ZM79.538,1.3l6.707-32.2h7.6l-.577,2.709h.355l.333-.466a6.2,6.2,0,0,1,1.088-1.088,7.388,7.388,0,0,1,2-1.11,8.276,8.276,0,0,1,3.02-.489,7.957,7.957,0,0,1,4.864,1.4,8.459,8.459,0,0,1,2.821,3.687,12.873,12.873,0,0,1,.933,4.908,16.948,16.948,0,0,1-.8,5.086,15.718,15.718,0,0,1-2.354,4.664,12.342,12.342,0,0,1-3.775,3.4,9.907,9.907,0,0,1-5.064,1.288,8.222,8.222,0,0,1-3.176-.533,6.738,6.738,0,0,1-2.021-1.244A6.291,6.291,0,0,1,90.376-10a6.243,6.243,0,0,1-.4-.733h-.355L87.134,1.3Zm11.415-19.1a5.839,5.839,0,0,0,.977,3.354A3.439,3.439,0,0,0,95-13a4.864,4.864,0,0,0,3.265-1.155,7.434,7.434,0,0,0,2.065-2.887,9.067,9.067,0,0,0,.711-3.465,5.735,5.735,0,0,0-.977-3.331,3.458,3.458,0,0,0-3.065-1.421,4.8,4.8,0,0,0-3.22,1.155,7.677,7.677,0,0,0-2.088,2.865A8.672,8.672,0,0,0,90.954-17.795Zm29.76-15.813a4.288,4.288,0,0,1-3.2-1.266,4.134,4.134,0,0,1-1.244-3,4.061,4.061,0,0,1,1.244-2.976,4.329,4.329,0,0,1,3.2-1.244,4.273,4.273,0,0,1,3.154,1.244,4.061,4.061,0,0,1,1.244,2.976,4.112,4.112,0,0,1-1.244,3.02A4.273,4.273,0,0,1,120.714-33.608Zm-10.3,26.251L115.428-30.9h7.6L118-7.357Zm14.747,0,3.687-17.5h-3.731L126.4-30.9h3.731l.622-2.976a12.228,12.228,0,0,1,1.444-3.642,7.9,7.9,0,0,1,3.109-2.909,11.191,11.191,0,0,1,5.4-1.133,12.193,12.193,0,0,1,2.665.244l1.066.244-1.11,5.241-.511-.111a5.579,5.579,0,0,0-1.177-.111,3.138,3.138,0,0,0-3.376,2.8l-.533,2.354h4.531l-1.288,6.041h-4.486l-3.731,17.5ZM141.99,1.3a14.355,14.355,0,0,1-1.866-.089l-.622-.089,1.288-6.263.466.044q.466.044,1.221.044a9.566,9.566,0,0,0,3.087-.489,6.673,6.673,0,0,0,2.821-2.088L144.921-30.9h7.151l1.821,15.1,8.04-15.1h8L157-8.6a27.692,27.692,0,0,1-4.042,5.53,14.038,14.038,0,0,1-4.8,3.287A16.242,16.242,0,0,1,141.99,1.3Zm38.555-8.217a9.849,9.849,0,0,1-5.574-1.466,8.93,8.93,0,0,1-3.265-3.842,12.282,12.282,0,0,1-1.066-5.086,15.044,15.044,0,0,1,.866-4.975,15.094,15.094,0,0,1,2.51-4.531,12.51,12.51,0,0,1,4.042-3.287,11.794,11.794,0,0,1,5.508-1.244,9.166,9.166,0,0,1,4.908,1.2,8.1,8.1,0,0,1,2.954,3.131,10.911,10.911,0,0,1,1.221,4.175,12.476,12.476,0,0,1-.333,4.286l-.178.711H174.77a10.209,10.209,0,0,0,.644,3.709,5.711,5.711,0,0,0,2,2.643,5.738,5.738,0,0,0,3.442.977,6.847,6.847,0,0,0,3.065-.6,6.264,6.264,0,0,0,1.91-1.4,6.444,6.444,0,0,0,1-1.4l.289-.6h4l-.289.777a10.4,10.4,0,0,1-1,1.888A11.769,11.769,0,0,1,187.9-9.6a10.544,10.544,0,0,1-3.02,1.91A10.886,10.886,0,0,1,180.544-6.913Zm-5.152-14.214h13.281a6.468,6.468,0,0,0-.244-3.154,5.17,5.17,0,0,0-1.777-2.487,5.342,5.342,0,0,0-3.354-.977,6.933,6.933,0,0,0-3.531.911,8.727,8.727,0,0,0-2.687,2.421A11.531,11.531,0,0,0,175.392-21.126ZM193.026-7.357,203.73-19.7,198.8-30.9h4.575l3.687,8.484,7.284-8.484h5.419L208.972-18.639l5.152,11.282h-4.575l-3.82-8.617L198.4-7.357Zm25.9,8.661,6.929-32.2h4.264l-.711,3.331h.222l.422-.577a7.453,7.453,0,0,1,1.333-1.31,9.278,9.278,0,0,1,2.332-1.31,9.081,9.081,0,0,1,3.42-.577,8.439,8.439,0,0,1,5.086,1.466,9.1,9.1,0,0,1,3.043,3.82,12.691,12.691,0,0,1,1.022,5.108,15.778,15.778,0,0,1-.822,4.975,14.854,14.854,0,0,1-2.421,4.531,12.328,12.328,0,0,1-3.909,3.287,11.069,11.069,0,0,1-5.33,1.244,9.163,9.163,0,0,1-3.909-.733,6.908,6.908,0,0,1-2.421-1.777,7.914,7.914,0,0,1-1.266-2.021h-.266L223.185,1.3Zm8.839-18.611a9.006,9.006,0,0,0,.622,3.376,5.533,5.533,0,0,0,1.91,2.487,5.465,5.465,0,0,0,3.287.933,7.008,7.008,0,0,0,3.6-.933,8.784,8.784,0,0,0,2.709-2.465,11.643,11.643,0,0,0,1.688-3.376,12.2,12.2,0,0,0,.577-3.664,8.837,8.837,0,0,0-.622-3.354,5.7,5.7,0,0,0-1.91-2.487,5.451,5.451,0,0,0-3.331-.955,6.889,6.889,0,0,0-3.576.933,8.876,8.876,0,0,0-2.687,2.465,11.642,11.642,0,0,0-1.688,3.376A12.2,12.2,0,0,0,227.76-17.306Zm32.78,10.394a9.849,9.849,0,0,1-5.574-1.466,8.931,8.931,0,0,1-3.265-3.842,12.282,12.282,0,0,1-1.066-5.086,15.044,15.044,0,0,1,.866-4.975,15.094,15.094,0,0,1,2.51-4.531,12.511,12.511,0,0,1,4.042-3.287,11.794,11.794,0,0,1,5.508-1.244,9.166,9.166,0,0,1,4.908,1.2,8.1,8.1,0,0,1,2.954,3.131,10.911,10.911,0,0,1,1.221,4.175,12.476,12.476,0,0,1-.333,4.286l-.178.711H254.766a10.209,10.209,0,0,0,.644,3.709,5.711,5.711,0,0,0,2,2.643,5.738,5.738,0,0,0,3.442.977,6.847,6.847,0,0,0,3.065-.6,6.264,6.264,0,0,0,1.91-1.4,6.445,6.445,0,0,0,1-1.4l.289-.6h4l-.289.777a10.4,10.4,0,0,1-1,1.888A11.768,11.768,0,0,1,267.892-9.6a10.544,10.544,0,0,1-3.02,1.91A10.886,10.886,0,0,1,260.541-6.913Zm-5.152-14.214h13.281a6.468,6.468,0,0,0-.244-3.154,5.171,5.171,0,0,0-1.777-2.487,5.342,5.342,0,0,0-3.354-.977,6.933,6.933,0,0,0-3.531.911,8.727,8.727,0,0,0-2.687,2.421A11.53,11.53,0,0,0,255.388-21.126ZM275.731-7.357,280.751-30.9h4.264l-.622,2.932h.178a9.657,9.657,0,0,1,2.71-2.354,8.025,8.025,0,0,1,4.22-1.022,11.76,11.76,0,0,1,1.333.067l.577.067-.844,4.042-.489-.067a8.678,8.678,0,0,0-1.155-.067,7.455,7.455,0,0,0-5.375,2.2q-2.265,2.2-3.287,7.085L280-7.357Zm27.672.444q-3.864,0-5.33-2.243a7.128,7.128,0,0,1-.755-5.574l2.709-12.7h-4.309l.755-3.465h4.309l1.244-5.908h4.264L305.047-30.9h5.641l-.755,3.465h-5.641l-2.754,12.97a3.381,3.381,0,0,0,.333,2.954,3.316,3.316,0,0,0,2.643.911,16.146,16.146,0,0,0,1.91-.111l.933-.111-.8,3.6-.933.155A13.717,13.717,0,0,1,303.4-6.913Zm17.545,0a11.2,11.2,0,0,1-4.442-.755,7.2,7.2,0,0,1-2.687-1.888,7.35,7.35,0,0,1-1.355-2.265,9.118,9.118,0,0,1-.489-1.888l-.089-.755h4.264l.089.6a4.072,4.072,0,0,0,.533,1.377,3.9,3.9,0,0,0,1.466,1.377,5.746,5.746,0,0,0,2.887.6,5.873,5.873,0,0,0,3.509-.933,2.806,2.806,0,0,0,1.288-2.354,2.214,2.214,0,0,0-1.044-2,13.231,13.231,0,0,0-2.288-1.155l-2.4-.977a10.82,10.82,0,0,1-3.776-2.443,5.234,5.234,0,0,1-1.333-3.731,7,7,0,0,1,.933-3.509,7.072,7.072,0,0,1,2.821-2.687,9.681,9.681,0,0,1,4.73-1.044,10.105,10.105,0,0,1,4.02.688,7.045,7.045,0,0,1,2.487,1.71,6.883,6.883,0,0,1,1.31,2.043,8.7,8.7,0,0,1,.511,1.71l.111.688h-4.086l-.133-.511a3.6,3.6,0,0,0-.6-1.155,4.144,4.144,0,0,0-1.4-1.155,5.294,5.294,0,0,0-2.532-.511,4.241,4.241,0,0,0-2.976.977,2.991,2.991,0,0,0-1.066,2.265,2.3,2.3,0,0,0,.733,1.754,6.467,6.467,0,0,0,1.843,1.177l2.621,1.11a20.373,20.373,0,0,1,2.443,1.2,7.563,7.563,0,0,1,2.288,2,5.254,5.254,0,0,1,.955,3.287,6.479,6.479,0,0,1-1.066,3.6,7.243,7.243,0,0,1-3.109,2.6A11.693,11.693,0,0,1,320.949-6.913Z" transform="translate(139.64 162.722)" fill="#464749"/><g transform="translate(68.508 96)"><g transform="translate(0 18.547)"><path d="M83.165,79.74a3.239,3.239,0,0,0-.64-3.21,8.143,8.143,0,0,0-4.193-1.814L71.716,73.53a28.746,28.746,0,0,1-7.528-2.442,10.719,10.719,0,0,1-4.972-4.744q-1.583-3.07-.379-7.954a18.943,18.943,0,0,1,4.477-8.407,22.346,22.346,0,0,1,7.734-5.389h-.021c7.557-3.449,16.533-1.86,16.533-1.86a34.712,34.712,0,0,0-20.609,1.86H50.389c-2.6,0-4.756,1.683-4.95,3.86L41.683,90.48c-.216,2.421,2.062,4.486,4.95,4.486H65.379a18.5,18.5,0,0,1-3.238-.819,13.983,13.983,0,0,1-5.289-3.175,12.961,12.961,0,0,1-2.825-4.116,14.166,14.166,0,0,1-1.079-4.117,26.155,26.155,0,0,1,0-4.4H65.158a8.474,8.474,0,0,0,.695,3.558,6.053,6.053,0,0,0,2.46,2.476,10.356,10.356,0,0,0,5.281,1.082,11.032,11.032,0,0,0,6.674-1.745A7.139,7.139,0,0,0,83.165,79.74Z" transform="translate(-41.669 -41.923)" fill="#85b42b"/><path d="M105.306,92.673l-2.72-32.459H93.338a6.863,6.863,0,0,0-.648-2.9,5.328,5.328,0,0,0-2.109-2.058,8.993,8.993,0,0,0-4.521-.907q-4.186,0-6.369,1.779a7.2,7.2,0,0,0-2.663,3.732,2.794,2.794,0,0,0,1.112,3.279,12.1,12.1,0,0,0,4.437,1.675l7.017,1.256a22.422,22.422,0,0,1,7.179,2.581,10.8,10.8,0,0,1,4.52,4.884,11.484,11.484,0,0,1,.29,7.606,19.5,19.5,0,0,1-4.476,8.407,22.839,22.839,0,0,1-8.455,5.861,27.243,27.243,0,0,1-6.331,1.726h18.034C103.232,97.139,105.508,95.087,105.306,92.673Z" transform="translate(-47.826 -44.096)" fill="#85b42b"/></g><g transform="translate(14.432 0)"><path d="M61.2,46.555a2.046,2.046,0,0,1-2.046-2.046V33.118a13.67,13.67,0,0,1,27.34,0,2.045,2.045,0,1,1-4.091,0,9.579,9.579,0,0,0-19.158,0V44.509A2.046,2.046,0,0,1,61.2,46.555Z" transform="translate(-59.157 -19.448)" fill="#4a7f2f"/></g></g></g></svg>